<svg width="158" height="32" viewBox="0 0 158 32" fill="none" xmlns="http://www.w3.org/2000/svg">
<path d="M43.5856 24V6.09233H50.3502L53.5603 15.6734C53.6505 15.9686 53.7284 16.2392 53.794 16.4852C53.8596 16.723 53.9129 17.0058 53.9538 17.3338H54.0153C54.0645 17.0058 54.1219 16.723 54.1875 16.4852C54.2531 16.2392 54.331 15.9686 54.4212 15.6734L57.6559 6.09233H64.4943V24H59.4147V14.1729C59.4147 13.8859 59.4188 13.5703 59.427 13.2259C59.4434 12.8733 59.4639 12.5535 59.4885 12.2665H59.3901C59.3491 12.5617 59.2958 12.8815 59.2302 13.2259C59.1646 13.5703 59.0867 13.8859 58.9965 14.1729L55.7618 24H51.494L48.2962 14.1729C48.206 13.8859 48.124 13.5662 48.0502 13.2136C47.9846 12.861 47.9313 12.5453 47.8903 12.2665H47.7919C47.8165 12.5453 47.8329 12.861 47.8411 13.2136C47.8575 13.5662 47.8657 13.8859 47.8657 14.1729V24H43.5856ZM66.7327 20.3225C66.7327 18.8794 67.2862 17.8012 68.3931 17.0878C69.5001 16.3745 70.9104 16.0137 72.6241 16.0055H75.047V15.4397C75.047 15.0216 74.9445 14.6854 74.7395 14.4312C74.5345 14.177 74.1656 14.0499 73.6326 14.0499C73.0996 14.0499 72.7225 14.1565 72.5011 14.3697C72.2797 14.5747 72.169 14.8494 72.169 15.1938V15.452H67.4215V15.1938C67.4215 13.9392 68.0242 12.943 69.2295 12.205C70.4348 11.4589 71.9968 11.0858 73.9155 11.0858C75.8588 11.0858 77.3593 11.4425 78.417 12.1558C79.4829 12.861 80.0159 13.9843 80.0159 15.5258V21.245C80.0159 21.7451 80.0651 22.2248 80.1635 22.684C80.2619 23.135 80.3972 23.5121 80.5694 23.8155V24H75.6497C75.5595 23.8196 75.4816 23.59 75.416 23.3112C75.3504 23.0325 75.3012 22.7578 75.2684 22.4872C75.0388 22.93 74.5591 23.3317 73.8294 23.6925C73.0996 24.0451 72.2059 24.2214 71.1482 24.2214C69.8526 24.2214 68.7908 23.9016 67.9627 23.262C67.1427 22.6225 66.7327 21.6426 66.7327 20.3225ZM71.6893 19.8552C71.6893 20.2733 71.8041 20.6177 72.0337 20.8883C72.2715 21.1507 72.6487 21.2819 73.1652 21.2819C73.7556 21.2819 74.2148 21.1015 74.5427 20.7407C74.8789 20.3717 75.047 19.9003 75.047 19.3263V18.5514H73.6695C72.9725 18.5514 72.4683 18.658 72.1567 18.8712C71.8451 19.0844 71.6893 19.4124 71.6893 19.8552ZM80.8645 11.4425H85.981L88.1211 17.7643C88.2031 18.0267 88.2605 18.2645 88.2933 18.4776C88.3343 18.6826 88.3712 18.904 88.404 19.1418H88.4778C88.5106 18.904 88.5475 18.6826 88.5885 18.4776C88.6295 18.2645 88.691 18.0267 88.7729 17.7643L90.9376 11.4425H95.3161L90.5317 24H85.6858L80.8645 11.4425ZM95.476 17.8873V17.4937C95.476 15.5176 96.1279 13.9515 97.4316 12.7954C98.7353 11.6311 100.404 11.0489 102.437 11.0489C104.463 11.0489 106.062 11.6024 107.234 12.7093C108.407 13.8162 108.993 15.3495 108.993 17.3092V18.699H98.6861V16.436H104.147V16.2023C104.147 15.6857 103.991 15.2594 103.68 14.9232C103.376 14.587 102.938 14.4189 102.364 14.4189C101.732 14.4189 101.244 14.6485 100.9 15.1077C100.556 15.5586 100.383 16.2515 100.383 17.1862V18.1456C100.383 19.0721 100.572 19.765 100.949 20.2241C101.335 20.6833 101.872 20.9129 102.56 20.9129C103.11 20.9129 103.581 20.7694 103.975 20.4824C104.368 20.1954 104.684 19.8634 104.922 19.4862L108.735 21.2204C108.325 22.2289 107.591 23.0079 106.533 23.5572C105.475 24.0984 104.184 24.369 102.659 24.369C100.445 24.369 98.6943 23.7868 97.407 22.6225C96.1197 21.4582 95.476 19.8798 95.476 17.8873ZM110.752 24V11.4425H115.622L115.671 12.7708H115.721C115.958 12.3116 116.299 11.9263 116.741 11.6147C117.184 11.2949 117.652 11.135 118.143 11.135C118.348 11.135 118.541 11.1555 118.722 11.1965C118.902 11.2375 119.025 11.2744 119.091 11.3072V15.2676C118.959 15.2184 118.804 15.1815 118.623 15.1569C118.451 15.1323 118.262 15.12 118.057 15.12C117.598 15.12 117.151 15.2717 116.717 15.575C116.282 15.8702 115.962 16.2597 115.757 16.7435V24H110.752ZM120.739 24V11.4425H125.744V24H120.739ZM120.443 7.94951C120.443 7.24436 120.685 6.6499 121.169 6.16613C121.653 5.68236 122.346 5.44047 123.248 5.44047C124.15 5.44047 124.838 5.68236 125.314 6.16613C125.798 6.6417 126.04 7.23616 126.04 7.94951C126.04 8.65467 125.798 9.25323 125.314 9.7452C124.83 10.229 124.133 10.4709 123.223 10.4709C122.329 10.4709 121.641 10.229 121.157 9.7452C120.681 9.25323 120.443 8.65467 120.443 7.94951ZM127.7 17.8996V17.4937C127.7 15.4684 128.344 13.89 129.631 12.7585C130.926 11.6188 132.624 11.0489 134.723 11.0489C136.773 11.0489 138.343 11.5081 139.433 12.4264C140.532 13.3366 141.135 14.5296 141.241 16.0055L141.278 16.3376H136.457V16.1408C136.457 15.6406 136.309 15.2471 136.014 14.9601C135.719 14.6731 135.297 14.5296 134.747 14.5296C134.116 14.5296 133.624 14.7551 133.272 15.2061C132.927 15.6488 132.755 16.3089 132.755 17.1862V18.2071C132.755 19.0926 132.919 19.7609 133.247 20.2118C133.575 20.6628 134.071 20.8883 134.735 20.8883C135.383 20.8883 135.83 20.7325 136.076 20.4209C136.322 20.1011 136.445 19.7281 136.445 19.3017V19.1172H141.254V19.3632C141.246 20.8145 140.672 22.0116 139.532 22.9546C138.392 23.8893 136.793 24.3567 134.735 24.3567C132.644 24.3567 130.947 23.7868 129.643 22.6471C128.348 21.5074 127.7 19.9249 127.7 17.8996ZM142.926 24V5.42817H147.883V14.9724L151.056 11.4302H156.529L147.883 20.5931V24H142.926ZM151.253 24L147.403 18.6129L150.527 15.1323L157.058 24H151.253Z" fill="#04B4F9"/>
<path d="M29 32L26.1115 0L14.5 12.576L2.88853 0L0 32L13.6156 20.3388L10.469 17.2549L5.22086 21.5935L6.26369 10.3959L29 32ZM17.8711 15.5046L22.7363 10.3959L23.7791 21.5935L17.8711 15.5046Z" fill="#04B4F9"/>
</svg>
